<?xml version="1.0" standalone="no"?><!DOCTYPE svg PUBLIC "-//W3C//DTD SVG 1.1//EN" "http://www.w3.org/Graphics/SVG/1.1/DTD/svg11.dtd"><svg t="1685174456812" class="icon" viewBox="0 0 1024 1024" version="1.1" xmlns="http://www.w3.org/2000/svg" p-id="1219" xmlns:xlink="http://www.w3.org/1999/xlink" width="200" height="200"><path d="M841.142857 502.857143m-182.025974 0a182.025974 182.025974 0 1 0 364.051948 0 182.025974 182.025974 0 1 0-364.051948 0Z" fill="#8a8a8a" p-id="1220"></path><path d="M396.505766 349.498182c11.122701 10.953143 29.185662 10.868364 40.308364-0.086442l122.796883-121.455376c27.408623-22.694234 56.955013-38.203844 87.921039-46.179741h0.086442c33.283325-8.672416 67.451013-7.709922 101.798233 2.892468h0.091429c30.696727 9.378909 59.616416 26.554182 83.557402 49.68561 23.58026 22.697558 41.285818 50.299013 51.253195 79.916883 10.502649 31.807169 11.657974 63.529558 3.381195 94.199689-4.002909 14.982649 4.983688 30.317714 20.199065 34.264104 2.493506 0.610078 4.897247 0.962494 7.300987 0.962493 12.633766 0 24.112208-8.328312 27.493403-20.854026 11.122701-41.363948 9.698078-83.773506-4.270546-126.008519l-0.091428-0.176208c-12.89974-38.032623-35.502545-73.433766-65.491117-102.35013-30.432416-29.356883-67.181714-51.173403-106.512624-63.178805-44.050286-13.671065-90.231688-14.89787-133.390961-3.593974-39.600208 10.165195-76.969558 29.882182-111.143896 58.36135l-0.886026 0.786286-25.895896 25.588364-12.633766-12.354494-1.87013-1.838545c-37.818182-35.402805-79.729039-59.239065-124.578909-70.893714-43.071169-11.037922-89.074701-9.724675-133.033559 3.854961-39.686649 12.18161-76.527377 34.003117-106.510961 63.268571-30.259532 29.180675-52.948779 64.493714-65.762078 102.260364v0.089766c-14.060052 42.060468-15.484675 84.471688-4.361974 126.094961v0.174545c11.21413 40.920104 35.507532 80.879377 70.388364 115.579013l196.566442 193.572572a28.668675 28.668675 0 0 0 20.112623 8.236883c7.294338 0 14.595325-2.71626 20.107636-8.236883a27.784312 27.784312 0 0 0 0-39.696624L157.13413 498.900779c-27.852468-27.687896-47.160519-59.059532-55.794701-90.515948-8.271792-30.936104-7.114805-62.656831 3.386181-94.113247 9.96239-29.356883 27.759377-56.958338 51.520832-79.916883l0.088103-0.086441c23.493818-22.958545 52.413506-40.133818 83.465974-49.599169h0.091429c33.725506-10.426182 68.872312-11.564883 101.533922-3.153455 35.324675 9.199377 68.784208 28.389403 99.572364 57.04478l13.882182 13.494857-58.55252 57.924156c-11.03626 10.776935-10.944831 28.56561 0.17787 39.518753z" fill="#8a8a8a" p-id="1221"></path><path d="M807.364156 428.954597c-9.388883-9.292468-21.843117-14.419117-35.086961-14.419116-13.248831 0-25.704727 5.126649-35.176727 14.419116L442.97974 720.197818a49.863481 49.863481 0 0 0-12.720208 21.372676l-43.859116 153.30909a49.158649 49.158649 0 0 0 12.454233 48.031585c9.299117 9.297455 22.195532 14.595325 35.352935 14.595325 4.386909 0 8.772156-0.61174 12.982858-1.738806l156.402701-41.865974c8.328312-2.260779 16.051532-6.687584 22.104104-12.681974l294.117402-291.246545c9.390545-9.292468 14.562078-21.627013 14.562078-34.829299 0-13.119169-5.171532-25.536831-14.562078-34.834286l-112.452155-111.355013zM443.594805 899.133506l35.176727-122.908259 90.261611 89.380571-125.44 33.529351z m171.752727-66.274077l-103.420675-102.320208L772.187429 472.818701l103.419013 102.409974L615.347532 832.859429z" fill="#8a8a8a" p-id="1222"></path></svg>