<?xml version="1.0" standalone="no"?><!DOCTYPE svg PUBLIC "-//W3C//DTD SVG 1.1//EN" "http://www.w3.org/Graphics/SVG/1.1/DTD/svg11.dtd"><svg t="1685343581120" class="icon" viewBox="0 0 1024 1024" version="1.1" xmlns="http://www.w3.org/2000/svg" p-id="5313" xmlns:xlink="http://www.w3.org/1999/xlink" width="200" height="200"><path d="M1022.517493 512.942488c0 281.360557-228.087085 509.452736-509.452737 509.452736s-509.452736-228.092179-509.452736-509.452736c0-281.365652 228.087085-509.452736 509.452736-509.452737s509.452736 228.087085 509.452737 509.452737" fill="#EF4084" p-id="5314"></path><path d="M470.82603 471.967204c53.013652-2.562547 103.169274-2.26197 152.535244-8.34993 32.258547-3.973731 48.168756-29.930348 48.000636-62.601553-0.163025-31.178507-16.312677-57.848358-46.548696-61.353393-50.812816-5.884179-102.328677-5.649831-153.987184-8.008597v140.313473zM226.365134 554.029851V470.540736h134.363065v-218.91184c9.068259-0.804935 15.548498-1.869692 22.028736-1.879881 81.446209-0.086607 162.892418-0.453413 244.333533 0.32605 19.333731 0.188498 39.064836 2.562547 57.873831 7.050826 61.210746 14.600915 96.373174 56.381134 99.674427 116.007482 3.413333 61.541891-24.652418 102.196219-86.250348 125.08593-1.528358 0.565493-2.832557 1.701572-7.05592 4.315065 5.069055 1.50798 8.227662 2.526886 11.437214 3.387861 56.090746 15.044139 88.354388 51.378308 95.889194 108.854766 7.050826 53.818587-19.797333 109.41007-71.053373 132.335443-33.236697 14.865831-70.900537 25.258667-107.086966 27.000995-82.103403 3.948259-164.522667 1.334766-246.814567 1.299104-3.209552 0-6.419104-0.886448-10.871721-1.543641v-147.221652h106.480716v65.719403c57.216637-2.664438 112.981333-1.467224 167.50806-9.134488 36.150766-5.084338 51.566806-37.582328 47.032677-76.1479-3.601831-30.643582-24.637134-50.374687-62.453811-50.924896-120.429532-1.757612-240.894726-1.569114-361.339543-2.119323-10.800398-0.050945-21.600796-0.010189-33.695204-0.010189z" fill="#FFFFFF" p-id="5315"></path></svg>