<?xml version="1.0" standalone="no"?><!DOCTYPE svg PUBLIC "-//W3C//DTD SVG 1.1//EN" "http://www.w3.org/Graphics/SVG/1.1/DTD/svg11.dtd"><svg t="1685174529715" class="icon" viewBox="0 0 1024 1024" version="1.1" xmlns="http://www.w3.org/2000/svg" p-id="3549" xmlns:xlink="http://www.w3.org/1999/xlink" width="200" height="200"><path d="M934.4 90.666667c-53.333333 38.4-114.133333 65.066667-179.2 76.8-69.333333-48-152.533333-76.8-243.2-76.8-87.466667 0-171.733333 26.666667-243.2 76.8-65.066667-11.733333-125.866667-38.4-179.2-77.866667v1.066667c0 73.6 19.2 147.2 56.533333 211.2-37.333333 64-56.533333 136.533333-56.533333 211.2 0 232.533333 188.8 421.333333 422.4 421.333333 232.533333 0 421.333333-188.8 422.4-421.333333 0-76.8-21.333333-148.266667-56.533333-211.2 36.266667-64 56.533333-136.533333 56.533333-211.2zM324.266667 550.4c-58.666667-29.866667-82.133333-101.333333-52.266667-158.933333l212.266667 107.733333c-29.866667 57.6-101.333333 81.066667-160 51.2z m375.466666 0c-17.066667 8.533333-35.2 12.8-53.333333 12.8-44.8 0-86.4-25.6-106.666667-65.066667l212.266667-107.733333c29.866667 59.733333 6.4 131.2-52.266667 160z" p-id="3550" fill="#bfbfbf"></path></svg>