<?xml version="1.0" standalone="no"?><!DOCTYPE svg PUBLIC "-//W3C//DTD SVG 1.1//EN" "http://www.w3.org/Graphics/SVG/1.1/DTD/svg11.dtd"><svg t="1684941946389" class="icon" viewBox="0 0 1024 1024" version="1.1" xmlns="http://www.w3.org/2000/svg" p-id="3559" id="mx_n_1684941946392" xmlns:xlink="http://www.w3.org/1999/xlink" width="200" height="200"><path d="M831.902981 216.087096l1.011347-1.564059L975.925766 0 781.41798 169.917957l0.105838 0.094078-29.176168 24.495751 0.917268 0.78791-27.282833 24.354632-0.458634-0.540952-29.658322 25.942211-1.646378-1.352382-78.249988 69.312509 2.293169 1.928614-1.658138 1.48174c-8.631724-19.427259-28.741054-33.327392-34.1741-36.949423l-51.425789-33.53907 20.121089 64.843769v4.46874l-40.242179-11.17185 8.643484 23.449125c-23.08457-24.754467-58.79921-58.411135-111.495062-68.207084L347.667968 248.132666l42.476549 53.660159a128.523313 128.523313 0 0 1 17.88672 22.343699c-4.46874-2.24613-11.17185-2.24613-15.64059-4.480499-31.304699-6.70311-49.191419-11.17185-62.609398-6.70311l-40.24218 15.652349 22.3437 15.65235c-17.87496 4.46874-40.242179 11.17185-51.414029 20.12109l-38.019569 24.589829 17.898479 6.70311C209.054711 406.890532 175.515642 424.800772 155.394552 451.577932l-33.539069 42.535348 8.937479-2.246129A52.554734 52.554734 0 0 0 115.105333 507.5195l-31.25766 38.007809h42.47655c-17.87496 13.41798-38.007809 35.773439-51.425789 69.312509L54.777344 668.499977l42.488309-22.3437c-20.12109 26.8242-42.488309 62.597639-44.6874 102.851578L48.074234 809.359364l35.773439-35.773439c-11.18361 31.29294-20.12109 73.781249-20.121089 147.562497l2.23437 100.605448 42.488309-91.726767c2.22261-6.70311 11.17185-20.12109 22.343699-35.77344 20.132849-29.05857 46.957049-69.312509 71.546879-120.726537-24.58983 131.980707-26.8242 183.394736-20.12109 228.105655 2.23437 15.65235 13.41798 22.3437 40.24218 22.343699 17.898479 0 42.488309-2.24613 80.496118 0 38.007809-4.4805 78.249989-8.94924 114.070467-8.949239 38.007809 0 89.433598 2.23437 134.144518 4.46874 102.851578 4.4805 109.554688 6.70311 118.503927-11.17185 8.93748-15.65235 8.93748-20.132849-96.136708-190.039047-17.898479-29.070329-38.019569-62.609399-53.660159-87.199228 22.3437 2.23437 40.242179 2.23437 58.128899 2.23437 8.93748 4.46874 35.773439 31.29294 51.414029 46.945289 31.304699 31.304699 44.6874 44.6874 60.375029 44.6874 24.58983 0 64.832009-24.58983 82.718728-51.414029 15.65235-24.58983 11.18361-42.476549 6.71487-51.425789-8.94924-22.3437-33.539069-67.031099-55.894529-107.320318-17.88672-29.070329-35.785199-60.363269-38.007809-69.312509-1.622858-3.245716-2.95172-11.501125-3.880748-22.414259a36.984703 36.984703 0 0 0 8.349488 6.773669l44.687399 22.3437-8.93748-22.3437 13.41798 20.12109 6.70311-62.609399c0-8.93748 0-15.64059-2.23437-22.3437L794.8242 476.2736l-60.363269-55.894529c-1.45822-2.928201-11.512885-11.571685-24.542791-15.969865 3.316275-5.22137 7.055905-11.042492 11.136571-17.569204l11.17185-15.65235-4.210024-3.527952c7.961413-11.14833 15.922826-22.402499 23.872479-34.538656l2.693004 2.257889 38.00781-58.128899-0.446874-0.293996 40.700813-60.069272z m-81.919059 39.983463l2.351968 1.975654v16.957692l-17.886719-11.18361zM620.437503 371.140613l20.121089-17.88672 29.07033 29.07033c-6.71487 11.17185-11.18361 17.87496-15.65235 24.589829-8.94924-8.93748-20.12109-22.367219-33.539069-35.773439zM173.281272 726.628876C157.628922 769.093665 135.273462 807.124994 115.105333 838.476733c6.71487-38.019569 15.65235-60.375029 26.83596-80.496118 6.71487-13.41798 11.18361-22.3437 15.652349-35.77344l8.94924-31.292939H128.570352c-2.24613 0-4.4805 0-6.714869 2.22261 13.41798-22.3437 31.304699-42.476549 44.687399-55.882769 13.40622-15.65235 22.3437-24.601589 24.58983-33.539069l6.70311-22.3437-22.3437-6.70311c-4.46874 0-6.70311-2.23437-11.18361-2.23437 2.24613-2.23437 6.71487-4.46874 11.18361-6.71487 11.18361-8.93748 22.3437-13.40622 26.824199-24.589829l4.4805-11.17185-11.18361-11.18361c-2.23437-4.46874-6.71487-6.70311-11.183609-8.93748 13.41798-8.94924 29.070329-15.65235 42.488309-20.12109 4.46874-2.24613 8.93748-2.24613 13.417979-4.480499L273.8632 471.757821l-26.8242-24.60159a27.647388 27.647388 0 0 0-6.70311-4.46874c29.05857-13.41798 62.597639-20.12109 78.249989-20.121089l-73.757729 145.328127c-40.253939 80.484358-53.660159 111.824337-71.546878 158.734347z m563.414029 11.18361a6.914787 6.914787 0 0 1-2.23437 4.46874c-8.93748 13.41798-35.773439 29.070329-44.6874 33.539069-8.93748-4.46874-22.3437-20.12109-33.539069-31.304699-35.773439-38.007809-60.363269-60.363269-82.718729-60.363269-20.12109 2.23437-46.957049 0-96.148468-8.93748l-26.824199-4.4805v26.8242c0 11.18361 4.46874 22.3437 78.249988 140.871147 26.8242 42.476549 64.843769 100.605448 82.730489 134.132757-17.88672 0-42.488309-2.22261-62.609399-2.22261-44.6874-2.24613-96.136708-4.4805-136.414167-4.4805-35.773439 0-78.261748 4.4805-116.269558 8.94924-24.58983 2.23437-55.882769 4.46874-71.535118 4.46874-4.46874-55.894529 6.70311-143.093757 62.597639-397.976572l35.773439-160.968717h49.191419l-38.019569-38.007809c11.18361-2.24613 20.132849-4.46874 29.070329-6.71487l26.8242-4.46874L387.933667 362.203133c31.29294 6.70311 49.179659 11.17185 62.597639 2.23437a48.979742 48.979742 0 0 0 11.18361-17.88672v-13.417979c11.17185 11.18361 22.3437 24.58983 31.292939 33.539069 13.41798 13.40622 22.3437 24.58983 35.77344 26.824199 11.18361 2.23437 24.601589 2.23437 35.773439 2.23437 15.64059 31.304699 49.167899 55.84749 69.300749 69.312509 0 26.8242 0 78.249989 6.703109 96.136708q6.70311 13.42974 40.25394 73.781249c22.3437 38.007809 46.980569 82.730488 55.882769 102.851578z m-58.128899-418.097662l17.886719-15.64059L712.105471 317.515733c-2.23437 4.46874-8.94924 15.65235-11.17185 20.12109z" p-id="3560" fill="#aab2df"></path><path d="M517.585925 512l140.859387 136.378887-42.476549-138.613257-98.382838 2.23437z" p-id="3561" fill="#aab2df"></path></svg>