<?xml version="1.0" standalone="no"?><!DOCTYPE svg PUBLIC "-//W3C//DTD SVG 1.1//EN" "http://www.w3.org/Graphics/SVG/1.1/DTD/svg11.dtd"><svg t="1685601060609" class="icon" viewBox="0 0 1024 1024" version="1.1" xmlns="http://www.w3.org/2000/svg" p-id="5756" xmlns:xlink="http://www.w3.org/1999/xlink" width="200" height="200"><path d="M502.3 955.4c-223.7 0-405.7-182-405.7-405.7S278.6 144 502.3 144 908 326.1 908 549.8 726 955.4 502.3 955.4z m0-774.2c-203.2 0-368.6 165.3-368.6 368.6S299 918.4 502.3 918.4 870.9 753 870.9 549.8 705.6 181.2 502.3 181.2z" fill="#FCB932" p-id="5757"></path><path d="M436.3 478.8L268.5 311l15-13.1C338.6 250 406.2 222.1 479 217l19.8-1.4v237.2l-15 2.9c-12.6 2.5-24.4 7.3-34.9 14.4l-12.6 8.7zM323.4 313.4l118.2 118.2c6.5-3.3 13.2-6.1 20.2-8.3V256.1c-50.6 6.9-97.8 26.4-138.4 57.3zM263.6 783.5l-13-15c-47.9-55-75.9-122.6-80.9-195.5l-1.4-19.8h237.1l2.9 15c2.5 12.6 7.3 24.3 14.4 34.9l8.5 12.7-167.6 167.7z m-54.9-193.2c6.9 50.6 26.4 97.8 57.3 138.4l118.2-118.2c-3.3-6.5-6.1-13.2-8.3-20.2H208.7zM405.5 546.3H168.3l1.4-19.8c5-72.8 33-140.4 80.9-195.5l13-15 167.7 167.7-8.5 12.7c-7.1 10.6-12 22.4-14.4 35l-2.9 14.9z m-196.8-37.1h167.1c2.2-7 5-13.7 8.4-20.2L266 370.8c-30.9 40.6-50.4 87.8-57.3 138.4zM568.4 478.8l-12.7-8.5c-10.6-7.1-22.3-12-34.9-14.4l-15-2.9V215.7l19.8 1.4c72.8 5.1 140.4 33 195.5 80.9l15 13.1-167.7 167.7z m-25.5-55.6c7 2.2 13.7 5 20.2 8.3l118.2-118.2c-40.6-30.9-87.8-50.4-138.4-57.3v167.2zM741 783.5L573.3 615.8l8.5-12.7c7.1-10.6 12-22.3 14.4-34.9l2.9-15h237.1l-1.4 19.8c-5 72.8-33 140.4-80.9 195.5l-12.9 15z m-120.5-173l118.2 118.2c30.9-40.6 50.4-87.8 57.3-138.4H628.8c-2.2 7-5 13.7-8.3 20.2zM836.4 546.3H599.2l-2.9-15c-2.5-12.6-7.3-24.4-14.4-35l-8.5-12.7L741 316l13 15c48 55 75.9 122.6 81 195.4l1.4 19.9z m-207.6-37.1H796c-6.9-50.6-26.4-97.8-57.3-138.4L620.5 489c3.3 6.5 6.1 13.2 8.3 20.2zM505.8 883.8V646.6l15-2.9c12.6-2.5 24.4-7.3 34.9-14.4l12.7-8.5 167.7 167.7-15 13.1c-55.1 47.9-122.7 75.9-195.5 80.9l-19.8 1.3z m37.1-207.5v167.1c50.6-6.9 97.8-26.4 138.4-57.3L563.1 667.9c-6.5 3.3-13.2 6.1-20.2 8.4zM498.9 883.8l-19.8-1.4c-72.8-5.1-140.4-33-195.5-80.9l-15-13.1 167.7-167.7 12.7 8.5c10.6 7.1 22.3 12 34.9 14.4l15 2.9v237.3z m-175.5-97.7c40.6 30.9 87.8 50.4 138.4 57.3V676.3c-7-2.2-13.7-5-20.2-8.3L323.4 786.1z" fill="#FCB932" p-id="5758"></path></svg>