<?xml version="1.0" standalone="no"?><!DOCTYPE svg PUBLIC "-//W3C//DTD SVG 1.1//EN" "http://www.w3.org/Graphics/SVG/1.1/DTD/svg11.dtd"><svg t="1685596756059" class="icon" viewBox="0 0 1024 1024" version="1.1" xmlns="http://www.w3.org/2000/svg" p-id="6788" xmlns:xlink="http://www.w3.org/1999/xlink" width="200" height="200"><path d="M30.72 583.68a456.704 433.152 0 1 0 913.408 0 456.704 433.152 0 1 0-913.408 0Z" fill="#87C596" p-id="6789"></path><path d="M243.712 185.344c-11.776-10.752-68.096-57.856-77.824-90.624-9.216-32.256 40.448-100.864 177.152-32.256 0 0 145.92-99.328 288.768 0 0 0 164.864-86.016 177.152 39.424l-96.256 110.08c0.512-0.512-348.16 91.648-468.992-26.624z" fill="#87C596" p-id="6790"></path><path d="M494.08 150.528v866.816c252.416 0 456.704-194.048 456.704-433.152s-204.288-433.664-456.704-433.664z" fill="#649A76" p-id="6791"></path><path d="M632.32 62.464c-47.616-33.28-95.232-44.032-138.24-44.032v220.672c112.64-5.632 218.624-27.648 218.624-27.648L808.96 101.376c-12.288-124.928-176.64-38.912-176.64-38.912z" fill="#649A76" p-id="6792"></path><path d="M731.648 189.952s2.56 22.528-37.888 29.696c-40.96 7.168-243.712 42.496-411.136 0 0 0-18.432-7.168-16.384-19.456 0 0 0-10.24 24.576-5.632 0 0 177.152 54.784 419.84-4.608 0 0 19.456-7.168 20.992 0z" fill="#5E7A52" p-id="6793"></path><path d="M487.424 607.232c-5.12-2.048-10.24-4.096-15.872-6.656s-15.36-7.68-29.696-16.384c-14.336-8.192-25.6-17.92-34.304-28.16-8.704-10.752-15.36-21.504-19.456-32.768-4.096-11.264-6.144-23.552-5.12-37.376 1.024-22.528 7.168-39.936 17.92-52.224 11.264-12.288 22.016-21.504 33.28-27.648 11.264-6.144 22.016-10.24 33.28-12.8l19.968-4.096v-18.432h25.088v18.944c6.656 0 11.776 0.512 16.384 0.512 4.096 0.512 9.216 1.024 15.36 2.56 6.144 1.024 16.384 4.096 31.232 8.192 14.848 4.096 27.136 12.288 36.864 23.552 9.728 11.776 14.848 22.016 14.848 31.232 0 10.24-4.608 18.944-12.8 26.112-8.192 7.168-17.92 11.264-29.184 11.264s-20.992-3.584-28.16-10.24c-7.68-7.168-11.264-15.36-10.752-24.576 0-7.68 2.56-14.848 8.192-20.992 5.632-6.144 8.192-9.728 8.192-11.264 0-2.56-4.608-6.144-12.8-9.728s-15.872-6.144-22.528-6.656l-14.848-1.536V547.84c12.288 4.608 25.6 9.728 40.448 14.848 14.848 5.12 28.16 10.752 40.448 16.384 12.288 5.632 23.552 15.36 33.792 28.16s15.36 26.624 15.36 41.472c0 14.336-2.048 27.648-6.144 40.448-4.096 12.288-10.752 23.04-18.944 32.256-8.704 9.216-17.92 16.384-27.648 20.992-10.24 4.608-20.48 8.704-31.232 11.776-10.752 3.072-21.504 5.12-31.744 6.144l-13.312 1.536V783.36h-25.088v-21.504c-8.704-1.024-15.872-2.56-21.504-3.584-5.632-1.536-12.8-3.584-20.48-6.144-7.68-3.072-14.848-6.144-21.504-9.216-6.656-3.072-13.312-7.68-19.968-12.288s-13.312-11.776-19.968-19.968c-6.656-8.192-10.24-16.896-10.24-26.112 0-8.704 1.024-16.384 4.096-23.04 3.072-6.656 7.68-12.288 13.824-15.872 6.144-3.584 13.312-5.632 22.016-5.632 9.728 0 17.92 2.56 24.064 7.68 6.144 4.608 9.728 10.24 10.24 16.896 0.512 6.144 0 11.264-1.536 14.848-1.536 3.072-3.584 5.632-6.144 7.68l-12.288 7.168c-3.072 2.048-5.12 4.608-7.168 7.68-1.536 3.072 2.048 9.216 10.752 17.408 6.144 6.144 12.8 11.264 19.968 14.848 7.168 3.584 13.312 5.632 17.92 6.144l17.408 3.072V607.232z m0-197.12l-16.896 4.608c-5.632 1.536-11.264 5.12-16.896 9.216-6.144 4.608-11.264 11.264-15.36 19.456-4.608 8.704-6.656 17.92-6.144 28.16 0 14.336 4.096 26.112 11.776 34.816 7.68 8.704 17.408 16.384 29.696 22.528l14.336 7.68v-126.464z m24.576 334.848c8.704-1.024 18.432-3.072 30.208-6.144 11.776-3.072 21.504-9.728 29.184-19.968s11.776-22.016 11.776-34.816-2.56-23.04-7.68-30.208c-5.12-7.168-12.288-13.312-22.016-18.432-9.216-5.12-18.944-9.216-27.648-13.312l-13.824-5.632v128.512z" fill="#FFFFFF" p-id="6794"></path></svg>