<?xml version="1.0" standalone="no"?><!DOCTYPE svg PUBLIC "-//W3C//DTD SVG 1.1//EN" "http://www.w3.org/Graphics/SVG/1.1/DTD/svg11.dtd"><svg t="1698481648662" class="icon" viewBox="0 0 1092 1024" version="1.1" xmlns="http://www.w3.org/2000/svg" p-id="1453" xmlns:xlink="http://www.w3.org/1999/xlink" width="213.28125" height="200"><path d="M46.8992 1006.045867L23.210667 926.5152A557.6704 557.6704 0 0 1 0 766.839467c0-298.3936 235.178667-541.149867 524.288-541.149867 9.557333 0 26.760533 0.2048 45.602133 0.750933V52.224c0-36.0448 21.640533-52.224 43.008-52.224 12.014933 0 24.1664 4.846933 36.181334 14.404267l417.792 334.2336c16.110933 12.970667 25.3952 31.3344 25.3952 50.517333 0 19.114667-9.284267 37.4784-25.463467 50.3808l-417.792 334.2336c-11.946667 9.557333-24.098133 14.472533-36.181333 14.472533-21.367467 0-42.939733-16.1792-42.939734-52.292266V581.2224a1798.826667 1798.826667 0 0 0-45.533866-0.8192c-209.578667 0-391.850667 139.0592-453.700267 346.112l-23.7568 79.530667zM524.356267 275.114667c-261.802667 0-474.794667 220.5696-474.794667 491.656533 0 22.1184 1.365333 44.100267 4.232533 65.7408C140.765867 649.216 320.853333 530.8416 524.288 530.8416c13.789867 0 43.690667 0.546133 71.338667 1.706667l23.7568 0.955733v210.466133l416.426666-333.141333c4.369067-3.4816 6.826667-7.645867 6.826667-11.741867 0-4.096-2.4576-8.192-6.826667-11.741866l-416.426666-333.141334V277.845333l-25.736534-1.024c-26.760533-1.024-56.046933-1.6384-69.358933-1.6384z" fill="#707070" p-id="1454"></path></svg>