<svg t="1697982563722" class="icon" viewBox="0 0 1024 1024" version="1.1" xmlns="http://www.w3.org/2000/svg" p-id="13810" width="200" height="200"><path d="M512 737.536m-51.2 0a51.2 51.2 0 1 0 102.4 0 51.2 51.2 0 1 0-102.4 0Z" fill="#9aacd9" p-id="13811"></path><path d="M972.8 721.9712a36.4544 36.4544 0 0 0-36.4544 36.4544c0 54.272-36.0448 100.096-78.7456 100.096H166.4c-42.7008 0-78.7456-45.8752-78.7456-100.096a36.4544 36.4544 0 0 0-72.9088 0c0 95.3856 68.0448 173.0048 151.6544 173.0048h691.2c83.6096 0 151.6544-77.6192 151.6544-173.0048a36.4544 36.4544 0 0 0-36.4544-36.4544zM367.1552 312.2688a38.0928 38.0928 0 0 0 27.136-11.264L473.6 221.696v377.6a38.4 38.4 0 0 0 76.8 0V221.7472l79.2576 79.3088a38.4 38.4 0 1 0 54.3232-54.3232L539.1872 101.888a38.4 38.4 0 0 0-54.3232 0L340.0192 246.7328a38.4 38.4 0 0 0 27.136 65.536z" fill="#9aacd9" p-id="13812"></path></svg>